<svg width="86" height="100" viewBox="0 0 86 100" fill="none" xmlns="http://www.w3.org/2000/svg">
<path d="M67.9864 87.4945V98.4324V99.9912H66.4446H1.54178H0V98.4324V1.55878V0H1.54178H47.9084H48.553L49.0059 0.457948L67.5509 19.2074L68.0038 19.6653V20.317V43.8838C69.9463 44.2184 71.6884 45.1519 73.0211 46.4993C74.6936 48.1902 75.7388 50.5416 75.7388 53.1308C75.7388 54.6367 75.3817 56.0722 74.7458 57.3492C74.2145 58.4148 73.4828 59.3659 72.603 60.1585V75.0066H78.8311C80.5297 75.0066 82.0802 75.7111 83.1951 76.8384C84.3101 77.9657 85.0069 79.5332 85.0069 81.2505V85.9357V87.4945H83.4652H68.0038H67.9864ZM64.8941 43.8749V21.867H47.891C47.0373 21.867 46.3492 21.1625 46.3492 20.3082V20.2642V3.11757H3.07485V96.8648H64.8941V87.4857H49.4415H47.8997V85.9269V81.2417C47.8997 79.5244 48.5965 77.9568 49.7115 76.8296C50.8265 75.7023 52.377 74.9978 54.0755 74.9978H60.3036V60.1497C59.4239 59.3659 58.6922 58.4148 58.1608 57.3404C57.5249 56.0634 57.1678 54.6367 57.1678 53.122C57.1678 50.5328 58.2044 48.1902 59.8855 46.4905C61.2182 45.1431 62.9517 44.2096 64.8941 43.8749ZM63.4046 74.9978H69.4933V59.41V58.6262L70.1205 58.1594C70.8957 57.5782 71.5403 56.812 71.9759 55.9401C72.394 55.1035 72.6292 54.1436 72.6292 53.122C72.6292 51.3959 71.9323 49.8371 70.8173 48.701C69.7024 47.5738 68.1519 46.8692 66.4446 46.8692C64.7373 46.8692 63.1955 47.5738 62.0719 48.701C60.9569 49.8283 60.2601 51.3959 60.2601 53.122C60.2601 54.1436 60.4953 55.0947 60.9134 55.9401C61.3489 56.812 61.9935 57.5782 62.7687 58.1594L63.3959 58.6262V59.41V74.9978H63.4046ZM78.8137 78.1242H54.0842C53.2393 78.1242 52.4641 78.4764 51.9066 79.0401C51.3491 79.6037 51.0007 80.3875 51.0007 81.2417V84.3681H81.906V81.2417C81.906 80.3875 81.5575 79.6037 81.0001 79.0401C80.4426 78.4764 79.6673 78.1242 78.8224 78.1242H78.8137ZM33.9888 90.6209H58.7183V93.7473H33.9888V90.6209ZM9.25939 45.3104H41.7152V48.4368H9.25939V45.3104ZM9.25939 39.0577H58.7183V42.1841H9.25939V39.0577ZM9.25939 32.8049H58.7183V35.9313H9.25939V32.8049ZM9.25939 26.5522H58.7183V29.6786H9.25939V26.5522ZM62.7078 18.7406L49.4415 5.32805V18.7406H62.7078Z" fill="#B13ECA"/>
</svg>
