<svg width="96" height="98" viewBox="0 0 96 98" fill="none" xmlns="http://www.w3.org/2000/svg">
<path d="M65.8959 62.537V96.4683V98H64.3973H1.48861H0V96.4683V1.53173V0H1.48861H46.4248H47.05L47.4867 0.446331L65.4592 18.8169L65.8959 19.2632V19.9023V35.3514L71.0167 26.4451L71.7709 25.1365L81.6851 7.89194C83.1241 5.39654 85.5852 4.74733 87.967 5.25453H87.9769C88.8304 5.43712 89.674 5.78201 90.448 6.24863C91.2221 6.7051 91.9267 7.29345 92.4924 7.96294H92.5023C93.8024 9.49467 94.4772 11.4524 93.9016 13.4812C95.3605 14.6275 97.256 17.0721 94.8543 21.2413L84.9898 38.4047C84.7814 38.7699 84.444 39.0134 84.0768 39.1046L82.0225 39.6524C81.2286 39.8654 80.4049 39.3785 80.2064 38.5569C79.998 37.7454 80.4743 36.9034 81.2782 36.7005L82.737 36.3151L92.284 19.6994C93.2169 18.0662 92.939 16.991 92.4626 16.3418L83.392 32.1155L65.8959 62.5471V62.537ZM48.3203 73.1982L46.4844 82.7233L53.729 76.4544L48.3203 73.2084V73.1982ZM42.7231 86.4157L45.7897 70.4999H45.7996C45.8294 70.3376 45.8889 70.1753 45.9782 70.0232L45.9981 69.9826L62.8988 40.5755V21.4442H46.4248C45.6011 21.4442 44.9263 20.7544 44.9263 19.9124V19.8719V3.07359H2.97722V94.9467H62.8988V67.7611L57.649 76.8906L57.6291 76.921L57.6093 76.9515C57.5199 77.1138 57.4009 77.2659 57.2619 77.3978L45.1843 87.8561C44.8469 88.1604 44.3805 88.3126 43.9041 88.2213C43.0903 88.059 42.5644 87.2576 42.7231 86.4258V86.4157ZM49.3028 70.2463L55.7733 74.1315L80.0675 31.8721L73.597 27.987L49.3127 70.2463H49.3028ZM75.1054 25.3597L81.5759 29.2448L90.6763 13.4102L90.6961 13.3798L90.7656 13.258L90.7755 13.2479C91.3908 12.1118 91.0435 10.8945 90.2495 9.97143C89.8824 9.54539 89.4358 9.17006 88.9396 8.87589C88.4533 8.58172 87.9075 8.35855 87.3616 8.24697C86.1608 7.99338 84.9302 8.2774 84.2653 9.43381L75.1054 25.3698V25.3597ZM32.9479 90.3414H52.4785V93.4048H32.9479V90.3414ZM8.98129 44.4099H41.1353V47.4733H8.98129V44.4099ZM8.98129 38.283H56.9146V41.3464H8.98129V38.283ZM8.98129 32.1561H56.9146V35.2195H8.98129V32.1561ZM8.98129 26.0292H56.9146V29.0926H8.98129V26.0292ZM60.785 18.3706L47.9234 5.2241V18.3706H60.785Z" fill="#B13ECA"/>
</svg>
