<svg width="97" height="97" viewBox="0 0 97 97" fill="none" xmlns="http://www.w3.org/2000/svg">
<path d="M48.4375 0H37.1094V9.375C34.2188 10.2344 31.4844 11.3281 28.8281 12.8125L22.1875 6.17187L6.17187 22.1875L12.8125 28.8281C11.3281 31.4844 10.2344 34.2188 9.375 37.1094H0V59.7656H9.375C10.2344 62.6562 11.3281 65.3906 12.8125 68.0469L6.17187 74.6875L22.1875 90.7031L28.8281 84.0625C31.4844 85.5469 34.2188 86.6406 37.1094 87.5V96.875H48.4375C75.1562 96.875 96.875 75.1562 96.875 48.4375C96.875 21.7188 75.1562 0 48.4375 0ZM48.4375 93.75H40.2344V85.0781L39.0625 84.7656C35.7031 83.9062 32.4219 82.5781 29.375 80.7812L28.3594 80.1562L22.1875 86.3281L10.625 74.6875L16.7969 68.5156L16.1719 67.5C14.375 64.4531 13.0469 61.1719 12.1875 57.8125L11.875 56.6406H3.125V40.2344H11.7969L12.1094 39.0625C12.9688 35.7031 14.2969 32.4219 16.0938 29.375L16.7188 28.3594L10.5469 22.1875L22.1094 10.625L28.2812 16.7969L29.2969 16.1719C32.3438 14.375 35.625 13.0469 38.9844 12.1875L40.1562 11.875V3.125H48.4375C73.4375 3.125 93.75 23.4375 93.75 48.4375C93.75 73.4375 73.4375 93.75 48.4375 93.75Z" fill="#B13ECA"/>
<path d="M70 24.6875L48.4375 46.25L43.9844 41.7969L41.7969 43.9844L46.25 48.4375L41.7969 52.8906L43.9844 55.0781L48.4375 50.625L61.7187 63.9063L63.9062 61.7188L50.625 48.4375L72.1875 26.875L70 24.6875Z" fill="#B13ECA"/>
<path d="M48.4375 70.3125C36.4062 70.3125 26.5625 60.4688 26.5625 48.4375C26.5625 36.4062 36.4062 26.5625 48.4375 26.5625V23.4375C34.6875 23.4375 23.4375 34.6875 23.4375 48.4375C23.4375 62.1875 34.6875 73.4375 48.4375 73.4375V70.3125Z" fill="#B13ECA"/>
<path d="M50 15.8594H46.875V18.4375H50V15.8594Z" fill="#B13ECA"/>
<path d="M80.9375 46.875H78.3594V50H80.9375V46.875Z" fill="#B13ECA"/>
<path d="M50 78.3594H46.875V80.9375H50V78.3594Z" fill="#B13ECA"/>
</svg>
