<svg width="100" height="101" viewBox="0 0 100 101" fill="none" xmlns="http://www.w3.org/2000/svg">
<path d="M60.7129 73.4536V93.6126C60.7129 95.3656 59.8933 96.9705 58.5664 98.1316C57.2395 99.2926 55.4052 100.01 53.4018 100.01H7.32405C5.30766 100.01 3.4734 99.2926 2.14648 98.1316C0.819566 96.9705 0 95.3656 0 93.6012V73.4422V26.5676V6.40855C0 4.65559 0.819566 3.05061 2.14648 1.88955L2.15949 1.87817C3.48641 0.71712 5.32067 0 7.32405 0H53.4018C55.4182 0 57.2525 0.71712 58.5794 1.87817C59.9063 3.03922 60.7259 4.64421 60.7259 6.40855V26.5676H98.2178H100V28.127V71.8714V73.4308H98.2178H60.7259L60.7129 73.4536ZM44.6468 56.4817V60.6706C44.6468 61.5357 43.8403 62.2301 42.8646 62.2301C41.8759 62.2301 41.0823 61.5243 41.0823 60.6706V56.55C40.8872 56.5159 40.6791 56.4703 40.4839 56.4134L40.4189 56.4021C38.4806 55.8671 36.8544 54.6491 36.3861 52.6002C36.191 51.7578 36.8284 50.9269 37.7911 50.7675C38.7537 50.5968 39.7034 51.1546 39.8855 51.9969C40.0546 52.7368 40.6791 53.1921 41.4336 53.4084L41.5247 53.4311C41.9019 53.5336 42.3182 53.5791 42.7215 53.5791H42.7345H42.7475H42.7735H42.7865H42.8125H42.8386H42.8646L43.0597 53.5677C43.5801 53.5336 44.0744 53.4197 44.4777 53.2376C44.972 53.0213 45.3363 52.6912 45.3363 52.3042C45.3363 51.9855 45.2582 51.7692 45.1542 51.644C45.0111 51.4733 44.7509 51.3594 44.4777 51.2911C43.9964 51.1659 43.437 51.1659 42.8906 51.1773C42.058 51.1887 41.2254 51.2001 40.2107 50.9269C39.4042 50.7106 38.5716 50.3236 37.9342 49.6975C37.2707 49.0373 36.8284 48.1381 36.8284 46.9315C36.8284 45.2127 37.9992 43.9492 39.6514 43.2207C40.0937 43.0272 40.575 42.8678 41.0823 42.754V39.3733C41.0823 38.5082 41.8889 37.8138 42.8646 37.8138C43.8533 37.8138 44.6468 38.5196 44.6468 39.3733V42.6857C44.8419 42.7199 45.0371 42.7654 45.2322 42.8223C47.2096 43.3345 48.8617 44.5639 49.343 46.6356C49.5382 47.4779 48.9007 48.3088 47.9381 48.4682C46.9754 48.6389 46.0258 48.0812 45.8436 47.2388C45.6745 46.4762 45.0111 46.0095 44.2175 45.8046C43.8403 45.7022 43.424 45.6566 42.9947 45.668H42.9817H42.9556H42.8516H42.8256H42.7995L42.6434 45.6794C42.1231 45.7135 41.6287 45.8274 41.2254 46.0095C40.7311 46.2258 40.3669 46.5559 40.3669 46.9429C40.3669 47.2958 40.4579 47.512 40.588 47.6372C40.7441 47.7852 40.9783 47.8991 41.2254 47.956C41.7198 48.0926 42.2662 48.0812 42.7995 48.0698C43.6191 48.0584 44.4517 48.047 45.4664 48.3202C46.377 48.5593 47.3006 49.0032 47.9641 49.8C48.5105 50.4374 48.8617 51.2684 48.8617 52.3156C48.8617 54.0344 47.6909 55.2979 46.0388 56.0264C45.5965 56.2199 45.1151 56.3793 44.6078 56.4931L44.6468 56.4817ZM80.9158 70.3233C80.8378 69.8111 80.7988 69.2874 80.7988 68.7638C80.7988 65.4173 82.3468 62.3894 84.8576 60.2039C87.3553 58.0184 90.8157 56.6525 94.6403 56.6525C95.2387 56.6525 95.8371 56.6866 96.4225 56.7549V43.2776C95.8371 43.3459 95.2387 43.3801 94.6403 43.3801C90.8157 43.3801 87.3553 42.0255 84.8576 39.8286C82.3598 37.6431 80.7988 34.6153 80.7988 31.2687C80.7988 30.7451 80.8378 30.2215 80.9158 29.7093H3.57747V70.3347H80.9288L80.9158 70.3233ZM96.4225 59.908L96.1884 59.8738C95.694 59.8055 95.1737 59.7714 94.6403 59.7714C91.8043 59.7714 89.2416 60.7844 87.3813 62.4008C85.521 64.0286 84.3762 66.271 84.3762 68.7524C84.3762 69.2191 84.4152 69.6745 84.4933 70.107L84.5323 70.3233H96.4225V59.908ZM42.8516 32.8168C48.2763 32.8168 53.1937 34.7405 56.7452 37.848C60.2966 40.9555 62.4951 45.2582 62.4951 50.0049C62.4951 54.7515 60.2966 59.0543 56.7452 62.1618C53.1937 65.2693 48.2763 67.193 42.8516 67.193C37.4268 67.193 32.5094 65.2693 28.958 62.1618C25.4065 59.0543 23.208 54.7515 23.208 50.0049C23.208 45.2582 25.4065 40.9555 28.958 37.848C32.5094 34.7405 37.4268 32.8168 42.8516 32.8168ZM54.2084 40.0563C51.3074 37.5179 47.2876 35.9357 42.8516 35.9357C38.4155 35.9357 34.3957 37.5065 31.4947 40.0563C28.5937 42.5946 26.7855 46.1119 26.7855 49.9935C26.7855 53.8751 28.5807 57.3924 31.4947 59.9307C34.3957 62.4691 38.4155 64.0513 42.8516 64.0513C47.2876 64.0513 51.3074 62.4805 54.2084 59.9307C57.1094 57.3924 58.9177 53.8751 58.9177 49.9935C58.9177 46.1119 57.1224 42.5946 54.2084 40.0563ZM84.5193 29.6865L84.4803 29.8914C84.4022 30.3239 84.3632 30.7792 84.3632 31.2459C84.3632 33.7274 85.521 35.9698 87.3683 37.5976C89.2286 39.2253 91.7913 40.227 94.6273 40.227C95.1607 40.227 95.681 40.1929 96.1754 40.1246L96.4095 40.0904V29.6865H84.5193ZM57.1354 26.5562V17.2223H3.56446V26.5562H57.1354ZM3.56446 73.4308V82.7647H57.1354V73.4308H3.56446ZM3.56446 85.895V93.5898C3.56446 94.4891 3.99376 95.3086 4.67022 95.9006C5.34669 96.4925 6.28334 96.8681 7.31104 96.8681H53.3888C54.4165 96.8681 55.3662 96.5038 56.0297 95.9119L56.0427 95.9006C56.7191 95.3086 57.1354 94.4891 57.1354 93.5898V85.895H3.56446ZM57.1354 14.1034V6.40855C57.1354 5.5093 56.7061 4.68974 56.0297 4.09783C55.3532 3.50592 54.4165 3.13029 53.3888 3.13029H7.31104C6.28334 3.13029 5.34669 3.49454 4.67022 4.08645L4.65721 4.09783C3.98075 4.68974 3.56446 5.52068 3.56446 6.40855V14.1034H57.1354ZM23.208 7.82002H37.4919V10.9503H23.208V7.82002ZM30.3499 85.9406C31.82 85.9406 33.1599 86.4642 34.1356 87.3179C35.0982 88.1602 35.7096 89.3326 35.7096 90.6303C35.7096 91.9166 35.1112 93.1004 34.1356 93.9427C33.1729 94.785 31.82 95.32 30.3499 95.32C28.8669 95.32 27.527 94.7964 26.5643 93.9427C25.5887 93.089 24.9902 91.9166 24.9902 90.6303C24.9902 89.344 25.5887 88.1716 26.5643 87.3179L26.5773 87.3065C27.553 86.4528 28.8799 85.9292 30.363 85.9292L30.3499 85.9406ZM31.6118 89.5148C31.2996 89.2416 30.8443 89.0595 30.3499 89.0595C29.8556 89.0595 29.4003 89.2302 29.0881 89.5148L29.0751 89.5262C28.7628 89.7993 28.5547 90.1977 28.5547 90.6303C28.5547 91.0628 28.7498 91.4612 29.0751 91.7344H29.0881C29.4133 92.019 29.8556 92.1897 30.3499 92.1897C30.8443 92.1897 31.2866 92.0076 31.6118 91.7344C31.937 91.4499 32.1322 91.0628 32.1322 90.6303C32.1322 90.1977 31.924 89.8107 31.6118 89.5262V89.5148Z" fill="#B13ECA"/>
</svg>
